<svg xmlns="http://www.w3.org/2000/svg" version="1.1" viewBox="150 100 200 250">
    <style type="text/css">
	.st0{fill:#004266;}
	.st1{fill:#36A9E1;}
	.st3{fill:#69AAB6;}
	.st4{fill:#007CAC;}
	.st6{fill:#FFFFFF;}
	.st7{fill:none;stroke:#9D9D9C;stroke-width:0.75;stroke-linecap:round;stroke-miterlimit:10;}
	.st8{fill:#9D9D9C;}
	</style>
    <path class="st0" d="M260.6,213.7c-2.8,0.7-5.8,1-8.8,1c-8.6,0-16.6-2.8-23.1-7.6c-4.1,11.9-15.4,20.4-28.7,20.4
	c-2.3,0-4.5-0.3-6.6-0.7c-3.4,6.6-5.4,14-5.4,21.9c0,26.2,21.3,47.5,47.5,47.5S283,275,283,248.8c0-0.1,0-0.3,0-0.4
	C270.5,241.5,261.7,228.7,260.6,213.7z"/>
    <path class="st1" d="M303.3,167.7c-4.6,0-9.1,0.7-13.3,2.1c0.3,2,0.5,4.1,0.5,6.1c0,16.5-10.3,30.5-24.8,36.1
	c-1.7,0.6-3.4,1.2-5.2,1.6c1.1,15,9.9,27.8,22.4,34.6c6,3.3,13,5.1,20.3,5.1c23.7,0,42.8-19.2,42.8-42.8S327,167.7,303.3,167.7z"/>
    <path class="st3" d="M290,169.9c-2.9-18.5-18.9-32.6-38.2-32.6c-19.3,0-35.3,14.1-38.3,32.6c10,5,16.9,15.3,16.9,27.2
	c0,1.5-0.1,3-0.3,4.4c1.8-0.2,3.6-0.3,5.5-0.3c9.2,0,17.8,2.6,25,7.1c1.8,1.1,3.6,2.4,5.2,3.7c14.5-5.6,24.8-19.7,24.8-36.1
	C290.5,173.9,290.3,171.9,290,169.9z"/>
    <path class="st4" d="M230.4,197.1c0-11.9-6.9-22.2-16.9-27.2c-4.1-2-8.7-3.2-13.6-3.2c-16.8,0-30.4,13.6-30.4,30.4
	c0,14.5,10.2,26.7,23.8,29.7c2.1,0.5,4.3,0.7,6.6,0.7c13.3,0,24.6-8.5,28.7-20.4c-1.8-1.3-3.4-2.8-5-4.4c2.1-0.5,4.2-0.9,6.3-1.1
	C230.3,200.1,230.4,198.6,230.4,197.1z"/>
    <rect x="202.9" y="195.1" class="st6" width="95.3" height="26.6"/>
    <rect x="190.9" y="205.2" transform="matrix(-1.836970e-16 1 -1 -1.836970e-16 468.3877 -32.6367)" class="st6" width="119.1" height="25.4"/>
</svg>